<!DOCTYPE svg PUBLIC "-//W3C//DTD SVG 1.1//EN" "http://www.w3.org/Graphics/SVG/1.1/DTD/svg11.dtd">
<!-- Uploaded to: SVG Repo, www.svgrepo.com, Transformed by: SVG Repo Mixer Tools -->
<svg fill="#211edc" height="800px" width="800px" version="1.1" id="Layer_1" xmlns="http://www.w3.org/2000/svg" xmlns:xlink="http://www.w3.org/1999/xlink" viewBox="0 0 512 512" xml:space="preserve">
<g id="SVGRepo_bgCarrier" stroke-width="0"/>
<g id="SVGRepo_tracerCarrier" stroke-linecap="round" stroke-linejoin="round"/>
<g id="SVGRepo_iconCarrier"> <g> <g> <path d="M142.743,200.38c-8.551,0-15.484,6.933-15.484,15.484v80.273c0,8.551,6.933,15.484,15.484,15.484 c8.551,0,15.484-6.933,15.484-15.484v-80.273C158.227,207.313,151.294,200.38,142.743,200.38z"/> </g> </g> <g> <g> <path d="M107.987,200.38h-46.01c-8.551,0-15.484,6.933-15.484,15.484s6.933,15.484,15.484,15.484h7.521v64.789 c0,8.551,6.933,15.484,15.484,15.484s15.484-6.933,15.484-15.484v-64.789h7.521c8.551,0,15.484-6.933,15.484-15.484 S116.538,200.38,107.987,200.38z"/> </g> </g> <g> <g> <path d="M450.023,200.38h-46.01v0c-8.551,0-15.484,6.933-15.484,15.484c0,8.551,6.933,15.484,15.484,15.484h7.521v64.789 c0,8.551,6.933,15.484,15.484,15.484s15.484-6.933,15.484-15.484v-64.789h7.521c8.551,0,15.484-6.933,15.484-15.484 S458.574,200.38,450.023,200.38z"/> </g> </g> <g> <g> <path d="M369.257,280.653h-23.673v-9.168h11.926c8.551,0,15.484-6.933,15.484-15.484s-6.933-15.484-15.484-15.484h-11.926v-9.169 h23.673c8.551,0,15.484-6.933,15.484-15.484c0-8.551-6.933-15.484-15.484-15.484h-33.161c-11.844,0-21.48,9.635-21.48,21.48v68.28 c0,11.844,9.635,21.48,21.48,21.48h33.161c8.551,0,15.484-6.933,15.484-15.484S377.808,280.653,369.257,280.653z"/> </g> </g> <g> <g> <path d="M218.485,261.074c-8.551,0-15.484,6.933-15.484,15.484c0,2.259-1.836,4.095-4.095,4.095c-2.259,0-4.095-1.836-4.095-4.095 v-41.115c0.001-2.259,1.837-4.095,4.095-4.095c2.259,0,4.095,1.836,4.095,4.095c0,8.551,6.933,15.484,15.484,15.484 c8.551,0,15.484-6.933,15.484-15.484c0-19.333-15.729-35.063-35.063-35.063c-19.334,0-35.063,15.729-35.063,35.063v41.115 c0,19.333,15.729,35.063,35.063,35.063c19.334,0,35.063-15.729,35.063-35.063C233.969,268.007,227.036,261.074,218.485,261.074z"/> </g> </g> <g> <g> <path d="M308.999,218.801v-2.937c0-8.551-6.933-15.484-15.484-15.484s-15.484,6.933-15.484,15.484v2.937 c0,5.965-2.959,11.241-7.478,14.473v-17.41c0-8.551-6.933-15.484-15.484-15.484c-8.551,0-15.484,6.933-15.484,15.484v80.273 c0,8.551,6.933,15.484,15.484,15.484c8.551,0,15.484-6.933,15.484-15.484v-17.41c4.517,3.231,7.478,8.508,7.478,14.473v2.937 c0,8.551,6.933,15.484,15.484,15.484s15.484-6.933,15.484-15.484V293.2c0-14.897-6.721-28.247-17.282-37.199 C302.277,247.048,308.999,233.699,308.999,218.801z"/> </g> </g> <g> <g> <path d="M496.516,142.114c-17.644,0-32-14.356-32-32c0-8.551-6.933-15.484-15.484-15.484H62.968 c-8.551,0-15.484,6.933-15.484,15.484c0,17.644-14.356,32-32,32C6.933,142.114,0,149.046,0,157.597v196.805 c0,8.551,6.933,15.484,15.484,15.484c17.644,0,32,14.356,32,32c0,8.551,6.933,15.484,15.484,15.484h386.065 c8.551,0,15.484-6.933,15.484-15.484c0-17.644,14.356-32,32-32c8.551,0,15.484-6.933,15.484-15.484V157.597 C512,149.046,505.067,142.114,496.516,142.114z M435.475,386.403H76.525c-5.66-22.304-23.254-39.898-45.558-45.558V171.156 c22.304-5.66,39.898-23.254,45.558-45.558h358.948c5.66,22.304,23.254,39.898,45.558,45.558v169.689h0.001 C458.728,346.505,441.134,364.099,435.475,386.403z"/> </g> </g> <g> <g> <path d="M407.427,144.517H104.574c-8.551,0-15.484,6.933-15.484,15.484s6.932,15.484,15.484,15.484h302.853 c8.551,0,15.484-6.933,15.484-15.484S415.978,144.517,407.427,144.517z"/> </g> </g> <g> <g> <path d="M407.426,336.517H104.574c-8.551,0-15.484,6.933-15.484,15.484s6.933,15.484,15.484,15.484h302.853 c8.551,0,15.484-6.933,15.484-15.484S415.978,336.517,407.426,336.517z"/> </g> </g> </g>
</svg>